# xmcd CD database file
#
# Track frame offsets:
#	150
#	12322
#	25670
#	38192
#	52085
#	63420
#	77490
#	92797
#	106980
#	119595
#	132502
#	143652
#	156802
#	168795
#	183190
#	197172
#	207952
#	221807
#	237027
#	249957
#	265175
#	278420
#
# Disc length: 3875 seconds
#
# Revision: 0
# Processed by: cddbd v1.5.2PL0 Copyright (c) Steve Scherf et al.
# Submitted via: CDex 2.09
#
DISCID=2e0f2116
DTITLE=Django Reinhardt And Stephane Grappelli - - With The Quintet Of The Hot Club Of France
DYEAR=1991
DGENRE=Jazz
TTITLE0=Oriental Shuffle
TTITLE1=Shine
TTITLE2=Sweet Chorus
TTITLE3=In The Still Of The Night
TTITLE4=Exactly Like You
TTITLE5=I'se A Muggin'
TTITLE6=I Can't Give You Anything But Love
TTITLE7=After You've Gone
TTITLE8=Limehouse Blues
TTITLE9=Nagasaki
TTITLE10=Swing Guitars
TTITLE11=Your'e Drving Me Crazy
TTITLE12=Tears
TTITLE13=Solitude
TTITLE14=Hot Lips
TTITLE15=Mystery Pacific
TTITLE16=In A Sentimental Mood
TTITLE17=A Little Love, A Little Kiss
TTITLE18=Miss Annabelle Lee
TTITLE19=Liebestraum No. 3
TTITLE20=Ain't Misbehavin'
TTITLE21=Rose Room
EXTD=YEAR: 1991
EXTT0=
EXTT1=
EXTT2=
EXTT3=
EXTT4=
EXTT5=
EXTT6=
EXTT7=
EXTT8=
EXTT9=
EXTT10=
EXTT11=
EXTT12=
EXTT13=
EXTT14=
EXTT15=
EXTT16=
EXTT17=
EXTT18=
EXTT19=
EXTT20=
EXTT21=
PLAYORDER=
